Jump_normalized_precision_landing03_filtered_grf
version=1
nRows=25
nColumns=37
inDegrees=yes
endheader
time		1_ground_force_vx		1_ground_force_vy		1_ground_force_vz		1_ground_force_px		1_ground_force_py		1_ground_force_pz		1_ground_torque_x		1_ground_torque_y		1_ground_torque_z		2_ground_force_vx		2_ground_force_vy		2_ground_force_vz		2_ground_force_px		2_ground_force_py		2_ground_force_pz		2_ground_torque_x		2_ground_torque_y		2_ground_torque_z		3_ground_force_vx		3_ground_force_vy		3_ground_force_vz		3_ground_force_px		3_ground_force_py		3_ground_force_pz		3_ground_torque_x		3_ground_torque_y		3_ground_torque_z		4_ground_force_vx		4_ground_force_vy		4_ground_force_vz		4_ground_force_px		4_ground_force_py		4_ground_force_pz		4_ground_torque_x		4_ground_torque_y		4_ground_torque_z		
0.302000		-0.000000		0.000000		0.000000		0.145274		0.000000		0.289941		0.000000		0.000000		-0.000000		0.000000		0.000000		0.000000		-0.178967		0.000000		0.303654		0.000000		-0.000000		0.000000		-65.723864		462.833053		33.207591		0.381548		1.273972		1.884881		2.144515		-15.101858		-1.083536		125.735663		535.447504		-20.231696		-0.352229		1.266852		1.873736		6.602702		28.117722		-1.062418		
0.305258		-0.000000		0.000000		0.000000		0.145274		0.000000		0.289941		0.000000		0.000000		-0.000000		0.000000		0.000000		0.000000		-0.178967		0.000000		0.303654		0.000000		-0.000000		0.000000		-66.192586		464.092107		31.979009		0.381546		1.273970		1.884899		2.161726		-15.156382		-1.044374		125.979998		540.352374		-20.771304		-0.352229		1.266854		1.873762		6.618465		28.387866		-1.091238		
0.308515		0.000000		0.000000		0.000000		0.145274		0.000000		0.289941		0.000000		0.000000		-0.000000		-0.000000		0.000000		0.000000		-0.178967		0.000000		0.303654		0.000000		-0.000000		0.000000		-66.619304		465.277557		30.697843		0.381540		1.273968		1.884923		2.176338		-15.199811		-1.002845		126.148128		545.330993		-21.317758		-0.352234		1.266845		1.873776		6.630812		28.664612		-1.120540		
0.311773		0.000000		-0.000000		-0.000000		0.145274		0.000000		0.289941		-0.000000		-0.000000		0.000000		-0.000000		-0.000000		0.000000		-0.178967		0.000000		0.303654		-0.000000		0.000000		-0.000000		-67.009389		466.473013		29.403268		0.381530		1.273965		1.884956		2.188798		-15.236901		-0.960430		126.194702		550.194677		-21.872493		-0.352249		1.266826		1.873777		6.638397		28.942662		-1.150590		
0.315030		0.000000		-0.000000		-0.000000		0.145274		0.000000		0.289941		-0.000000		-0.000000		0.000000		-0.000000		-0.000000		-0.000000		-0.178967		0.000000		0.303654		-0.000000		0.000000		-0.000000		-67.374548		467.771890		28.150893		0.381517		1.273959		1.884997		2.200149		-15.275323		-0.919281		126.069129		554.756817		-22.437426		-0.352271		1.266803		1.873767		6.638998		29.214366		-1.181590		
0.318288		0.000000		-0.000000		-0.000000		0.145274		0.000000		0.289941		-0.000000		-0.000000		0.000000		-0.000000		-0.000000		-0.000000		-0.178967		0.000000		0.303654		-0.000000		0.000000		-0.000000		-67.726203		469.257995		26.990793		0.381504		1.273951		1.885046		2.211507		-15.322982		-0.881348		125.737028		558.871537		-23.013821		-0.352301		1.266781		1.873749		6.630662		29.471739		-1.213620		
0.321545		0.000000		-0.000000		-0.000000		0.145274		0.000000		0.289941		-0.000000		-0.000000		0.000000		-0.000000		-0.000000		-0.000000		-0.178967		0.000000		0.303654		-0.000000		0.000000		-0.000000		-68.074841		470.986739		25.941413		0.381494		1.273942		1.885095		2.223775		-15.385544		-0.847418		125.235271		562.469799		-23.589438		-0.352329		1.266766		1.873734		6.614695		29.708614		-1.245951		
0.324803		-0.000000		-0.000000		-0.000000		0.145274		0.000000		0.289941		-0.000000		-0.000000		0.000000		0.000000		-0.000000		-0.000000		-0.178967		0.000000		0.303654		-0.000000		0.000000		-0.000000		-68.428509		472.987094		24.994598		0.381486		1.273934		1.885140		2.237425		-15.465384		-0.817255		124.617009		565.557795		-24.159300		-0.352352		1.266757		1.873726		6.593073		29.921794		-1.278189		
0.328061		-0.000000		0.000000		0.000000		0.145274		0.000000		0.289941		0.000000		0.000000		-0.000000		0.000000		0.000000		0.000000		-0.178967		0.000000		0.303654		0.000000		-0.000000		0.000000		-68.789406		475.254877		24.110158		0.381484		1.273929		1.885180		2.252317		-15.560893		-0.789420		123.963715		568.205177		-24.714074		-0.352366		1.266752		1.873727		6.569330		30.111451		-1.309697		
0.331318		-0.000000		0.000000		0.000000		0.145274		0.000000		0.289941		0.000000		0.000000		-0.000000		0.000000		0.000000		0.000000		-0.178967		0.000000		0.303654		0.000000		-0.000000		0.000000		-69.150957		477.761305		23.234726		0.381484		1.273927		1.885212		2.267804		-15.668171		-0.761982		123.341438		570.501456		-25.237582		-0.352373		1.266745		1.873733		6.546459		30.279888		-1.339508		
0.334576		-0.000000		0.000000		0.000000		0.145274		0.000000		0.289941		0.000000		0.000000		-0.000000		0.000000		0.000000		0.000000		-0.178967		0.000000		0.303654		0.000000		-0.000000		0.000000		-69.502754		480.448527		22.313572		0.381484		1.273926		1.885237		2.283193		-15.782926		-0.733009		122.793815		572.532200		-25.704994		-0.352376		1.266731		1.873737		6.526643		30.430793		-1.366252		
0.337833		-0.000000		0.000000		0.000000		0.145274		0.000000		0.289941		0.000000		0.000000		-0.000000		0.000000		0.000000		0.000000		-0.178967		0.000000		0.303654		0.000000		-0.000000		0.000000		-69.835787		483.245768		21.306826		0.381480		1.273923		1.885257		2.298120		-15.902400		-0.701154		122.339157		574.347545		-26.092552		-0.352378		1.266711		1.873739		6.511087		30.567704		-1.388688		
0.341091		0.000000		-0.000000		0.000000		0.145274		0.000000		0.289941		0.000000		0.000000		-0.000000		-0.000000		0.000000		0.000000		-0.178967		0.000000		0.303654		0.000000		-0.000000		0.000000		-70.146127		486.091074		20.193147		0.381475		1.273917		1.885275		2.312593		-16.025558		-0.665731		121.962492		575.958434		-26.402077		-0.352379		1.266688		1.873738		6.499542		30.693585		-1.407002		
0.344348		0.000000		-0.000000		-0.000000		0.145274		0.000000		0.289941		-0.000000		-0.000000		0.000000		-0.000000		-0.000000		0.000000		-0.178967		0.000000		0.303654		-0.000000		0.000000		-0.000000		-70.439501		488.955190		18.968680		0.381469		1.273907		1.885295		2.326944		-16.152462		-0.626623		121.620791		577.339271		-26.673845		-0.352378		1.266667		1.873740		6.490347		30.809966		-1.423462		
0.347606		0.000000		-0.000000		-0.000000		0.145274		0.000000		0.289941		-0.000000		-0.000000		0.000000		-0.000000		-0.000000		-0.000000		-0.178967		0.000000		0.303654		-0.000000		0.000000		-0.000000		-70.736540		491.843235		17.650037		0.381467		1.273893		1.885319		2.341847		-16.283260		-0.584333		121.256442		578.454008		-26.965494		-0.352375		1.266650		1.873745		6.480887		30.917080		-1.441246		
0.350864		0.000000		-0.000000		-0.000000		0.145274		0.000000		0.289941		-0.000000		-0.000000		0.000000		-0.000000		-0.000000		-0.000000		-0.178967		0.000000		0.303654		-0.000000		0.000000		-0.000000		-71.071591		494.779987		16.266308		0.381473		1.273878		1.885351		2.358301		-16.417813		-0.539749		120.804743		579.287430		-27.325995		-0.352368		1.266638		1.873757		6.467807		31.014671		-1.463016		
0.354121		0.000000		-0.000000		-0.000000		0.145274		0.000000		0.289941		-0.000000		-0.000000		0.000000		-0.000000		-0.000000		-0.000000		-0.178967		0.000000		0.303654		-0.000000		0.000000		-0.000000		-71.480822		497.788224		14.870931		0.381488		1.273862		1.885390		2.377371		-16.555870		-0.494589		120.218507		579.872413		-27.777347		-0.352361		1.266625		1.873773		6.448331		31.103444		-1.489934		
0.357379		-0.000000		-0.000000		-0.000000		0.145274		0.000000		0.289941		-0.000000		-0.000000		0.000000		0.000000		-0.000000		-0.000000		-0.178967		0.000000		0.303654		-0.000000		0.000000		-0.000000		-71.987638		500.870901		13.513557		0.381510		1.273849		1.885436		2.399806		-16.697211		-0.450492		119.489152		580.295306		-28.309781		-0.352357		1.266605		1.873787		6.421571		31.186161		-1.521421		
0.360636		-0.000000		0.000000		0.000000		0.145274		0.000000		0.289941		0.000000		0.000000		-0.000000		0.000000		0.000000		0.000000		-0.178967		0.000000		0.303654		0.000000		-0.000000		0.000000		-72.591986		503.993146		12.223387		0.381535		1.273843		1.885487		2.425658		-16.840905		-0.408443		118.647810		580.682108		-28.892541		-0.352361		1.266571		1.873795		6.388722		31.267470		-1.555751		
0.363894		-0.000000		0.000000		0.000000		0.145274		0.000000		0.289941		0.000000		0.000000		-0.000000		0.000000		0.000000		0.000000		-0.178967		0.000000		0.303654		0.000000		-0.000000		0.000000		-73.262857		507.072352		10.994264		0.381558		1.273843		1.885537		2.453909		-16.984177		-0.368248		117.755633		581.160077		-29.492425		-0.352373		1.266525		1.873798		6.352633		31.352192		-1.591046		
0.367152		-0.000000		0.000000		0.000000		0.145274		0.000000		0.289941		0.000000		0.000000		-0.000000		0.000000		0.000000		0.000000		-0.178967		0.000000		0.303654		0.000000		-0.000000		0.000000		-73.938222		509.991436		9.770019		0.381578		1.273848		1.885584		2.482354		-17.122127		-0.328012		116.860420		581.818665		-30.093968		-0.352389		1.266474		1.873799		6.315568		31.443627		-1.626389		
0.370409		-0.000000		0.000000		0.000000		0.145274		0.000000		0.289941		0.000000		0.000000		-0.000000		0.000000		0.000000		0.000000		-0.178967		0.000000		0.303654		0.000000		-0.000000		0.000000		-74.537687		512.637641		8.470603		0.381591		1.273860		1.885627		2.508025		-17.249101		-0.285016		115.975560		582.681498		-30.707576		-0.352405		1.266430		1.873807		6.278194		31.542747		-1.662317		
0.373667		0.000000		-0.000000		0.000000		0.145274		0.000000		0.289941		-0.000000		-0.000000		0.000000		-0.000000		0.000000		0.000000		-0.178967		0.000000		0.303654		0.000000		-0.000000		0.000000		-74.989502		514.941948		7.011637		0.381597		1.273878		1.885667		2.528246		-17.361094		-0.236395		115.059324		583.711909		-31.370912		-0.352415		1.266404		1.873827		6.238583		31.649196		-1.700949		
0.376924		0.000000		-0.000000		-0.000000		0.145274		0.000000		0.289941		-0.000000		-0.000000		0.000000		-0.000000		-0.000000		-0.000000		-0.178967		0.000000		0.303654		-0.000000		0.000000		-0.000000		-75.259945		516.905698		5.342813		0.381598		1.273901		1.885711		2.541810		-17.457839		-0.180446		114.028772		584.833042		-32.127389		-0.352420		1.266401		1.873861		6.193014		31.762856		-1.744870		
0.380182		0.000000		-0.000000		-0.000000		0.145274		0.000000		0.289941		-0.000000		-0.000000		0.000000		-0.000000		-0.000000		-0.000000		-0.178967		0.000000		0.303654		-0.000000		0.000000		-0.000000		-75.357647		518.590856		3.465529		0.381595		1.273925		1.885762		2.549165		-17.542658		-0.117230		112.795806		585.955563		-33.009356		-0.352418		1.266419		1.873906		6.137835		31.885041		-1.796220		
